<svg width="76" height="68" viewBox="0 0 76 68" fill="none" xmlns="http://www.w3.org/2000/svg">
<path d="M75.231 3.19277L73.3434 16.6417C69.5683 16.3272 66.5009 16.9564 64.1415 18.5293C61.782 20.0237 60.1304 22.2258 59.1866 25.1358C58.3214 27.9672 58.1641 31.2705 58.7147 35.0456H75.231V67.1344H43.1422V35.0456C43.1422 23.7202 45.7769 15.1474 51.0464 9.3274C56.3159 3.42872 64.3774 1.38384 75.231 3.19277ZM32.5246 3.19277L30.637 16.6417C26.8618 16.3272 23.7945 16.9564 21.435 18.5293C19.0756 20.0237 17.4239 22.2258 16.4802 25.1358C15.615 27.9672 15.4577 31.2705 16.0083 35.0456H32.5246V67.1344H0.435746V35.0456C0.435746 23.7202 3.07049 15.1474 8.33998 9.3274C13.6095 3.42872 21.671 1.38384 32.5246 3.19277Z" fill="#D54757"/>
</svg>
